<?xml version="1.0" encoding="utf-8"?>
<!-- Generator: Adobe Illustrator 15.0.0, SVG Export Plug-In . SVG Version: 6.00 Build 0)  -->
<!DOCTYPE svg PUBLIC "-//W3C//DTD SVG 1.1//EN" "http://www.w3.org/Graphics/SVG/1.1/DTD/svg11.dtd">
<svg version="1.1" id="Ebene_1" xmlns="http://www.w3.org/2000/svg" xmlns:xlink="http://www.w3.org/1999/xlink" x="0px" y="0px"
	 width="371.4px" height="58.1px" viewBox="0 0 371.4 58.1" enable-background="new 0 0 371.4 58.1" xml:space="preserve">
<g>
	<path fill="#000001" d="M347.9,18.7L335.8,51.9l5.5,1.9l7.601-20.9c1.899-2.3,3.399-4,4.699-5c1.301-1,2.601-1.5,4-1.199
		c1.4,0.3,2.801,1.399,4,3.5l5.9-6.9c-0.9-1.2-2.1-2.5-3.6-3.6c-1.5-1.2-2.7-1.801-3.5-1.801c-1.7,0-4.7,2.7-9,8l1.899-5.1
		L347.9,18.7z M321.6,40.7c3.601-2.601,7.101-5.301,10.7-8c3.601-2.7,5.4-4.101,5.5-4.301c-0.899-2.3-2.2-4.6-3.899-6.899
		c-1.7-2.4-3.2-3.601-4.601-3.601c-2,0-4.2,1-6.6,2.9c-2.4,1.9-4.5,4.2-6.3,7c-1.801,2.7-3.2,5.7-4.101,8.8
		c-0.899,3.2-1.1,5.9-0.399,8.2c1.1,3.8,2.8,6.5,5.1,8c1.6,1,3.5,1,5.9,0c2.3-1,5.5-3,9.399-5.9l-0.5-1.399c-0.3-1-0.5-1.9-0.8-2.9
		l-0.5-1.399c-1.6,1.3-3,2.399-4.2,3.199c-1.2,0.801-2.5,1.601-4.1,2.4c-1.601,0.8-2.9,1-3.9,0.7c-1-0.4-1.7-1.3-2.1-2.9L321.6,40.7
		z M322.1,29.3c1.7-2.3,3.5-3.8,5.4-4.3c1.9-0.601,3.6,0.2,5.2,2.399L317.6,38.1C318.8,34.5,320.3,31.6,322.1,29.3 M306.8,19.8
		c-1.399-0.7-2.5-1.1-3.3-1.4C302.7,18.1,302,18,301.6,18c-1.6,0-3.3,0.5-5.1,1.399c-1.7,0.9-3.2,2.101-4.399,3.601
		c-1.201,1.5-2.201,3.1-3,4.8c-0.801,1.8-1.101,3.4-0.801,5c0.301,2.3,1,4.4,2.1,6.4l0.301,0.3c1,0.7,4.1,0.2,9.3-1.5
		c1.7-0.601,2.7-0.9,3-0.9s0.5,0,0.4,0.2c-2.101,3.8-4.5,6.5-7.2,7.9c-2.7,1.399-5.1,1.699-7.301,0.899
		c-2.199-0.8-4-2.399-5.399-4.7l-1.7,2.4c1.301,3.4,2.5,5.9,3.801,7.6c1.199,1.7,3,2.5,5.1,2.5c2.6,0,5.199-0.899,7.7-2.699
		c2.5-1.801,4.5-3.9,6.1-6.4c1.5-2.5,2.4-5.1,2.6-7.8c0.2-2.7-0.5-4.9-2.199-6.601c-0.4-0.399-1.5-0.3-3.4,0.2s-3.7,1-5.3,1.601
		c-1.6,0.5-2.4,0.6-2.301,0.1c0.4-1.8,1.4-3.6,3-5.5c1.601-1.9,3.301-3,5.001-3.3c1.1-0.2,3,0.2,5.899,1.2l1.9-3.7
		C309.1,20.9,308.2,20.5,306.8,19.8 M278.8,18.7l-12.1,33.1l5.5,1.9l12.1-33L278.8,18.7z M289.101,9.5c0-2.2-0.601-3.8-1.9-4.9
		c-0.6,0.2-1.6,0.9-3,2c-1.301,1.2-2.2,2.101-2.5,2.8c0,2.301,0.6,3.9,1.9,5C285.899,13.2,287.7,11.5,289.101,9.5 M252.101,40.7
		c3.6-2.601,7.1-5.301,10.699-8c3.6-2.7,5.4-4.101,5.5-4.301c-0.9-2.3-2.199-4.6-3.9-6.899c-1.699-2.4-3.199-3.601-4.6-3.601
		c-2,0-4.199,1-6.6,2.9s-4.5,4.2-6.301,7c-1.799,2.7-3.199,5.7-4.1,8.8c-0.9,3.2-1.1,5.9-0.4,8.2c1.101,3.8,2.801,6.5,5.101,8
		c1.601,1,3.5,1,5.899,0c2.301-1,5.5-3,9.4-5.9l-0.5-1.399c-0.3-1-0.5-1.9-0.8-2.9L261,41.2c-1.601,1.3-3,2.399-4.2,3.199
		c-1.199,0.801-2.5,1.601-4.1,2.4s-2.9,1-3.9,0.7c-1-0.4-1.699-1.3-2.1-2.9L252.101,40.7z M252.601,29.3
		c1.699-2.3,3.5-3.8,5.399-4.3c1.899-0.601,3.601,0.2,5.2,2.399l-15.1,10.7C249.2,34.5,250.7,31.6,252.601,29.3 M220.601,5.7
		l-13.5,37l-0.201,0.3L207,43.1l-3.2,8.7l6.2,2l3.601-10l11.199-12l2.1,19.9l5.701,2l-3.101-27l17.7-19l-5.7-2L218.399,30.6l8-22.1
		L220.601,5.7z M184.4,19.8c-1.4-0.7-2.5-1.1-3.3-1.4c-0.8-0.3-1.5-0.399-1.9-0.399c-1.6,0-3.3,0.5-5.1,1.399
		c-1.7,0.9-3.2,2.101-4.4,3.601c-1.2,1.5-2.2,3.1-3,4.8c-0.8,1.8-1.1,3.4-0.8,5c0.3,2.3,1,4.4,2.1,6.4l0.3,0.3
		c1,0.7,4.1,0.2,9.3-1.5c1.6-0.601,2.7-0.9,3-0.9c0.3,0,0.5,0,0.4,0.2c-2.1,3.8-4.5,6.5-7.2,7.9c-2.7,1.399-5.1,1.699-7.3,0.899
		s-4-2.399-5.4-4.7l-1.7,2.4c1.3,3.4,2.5,5.9,3.8,7.6c1.2,1.7,3,2.5,5.1,2.5c2.6,0,5.2-0.899,7.7-2.699c2.5-1.801,4.5-3.9,6.1-6.4
		c1.5-2.5,2.4-5.1,2.6-7.8c0.2-2.7-0.5-4.9-2.2-6.601c-0.4-0.399-1.5-0.3-3.4,0.2s-3.7,1-5.3,1.601c-1.6,0.5-2.4,0.6-2.3,0.1
		c0.4-1.8,1.4-3.6,3-5.5s3.3-3,5-3.3c1.1-0.2,3,0.2,5.9,1.2l1.9-3.7C186.601,20.9,185.7,20.5,184.4,19.8 M151.7,34.9L149.4,41
		c-2.7,2-5,3.399-7,4.3c-2,0.8-3.3,1.1-4.1,0.9c-0.8-0.2-1.2-0.601-1.2-1.2C136.8,41.7,141.7,38.4,151.7,34.9 M141,27.5L141,27.5
		l0.1-0.101l0,0l0.1-0.1l0,0l0,0h0.1l0.1-0.1l0,0l0,0l0.1-0.101l0,0l0,0l0.1-0.1l0,0h0.1l0.1-0.101h0.1c5.8-2.1,9.5-3.1,11.1-3
		c1.6,0.2,2,1.4,1.2,3.601l-0.7,1.899c-1.1,0.101-2.5,0.4-4.2,0.801c-1.7,0.399-3.6,0.899-5.9,1.6c-2.2,0.7-4.3,1.6-6.1,2.8
		c-1.8,1.2-3,2.5-3.5,3.9c-0.7,1.8-0.5,4.8,0.4,8.899c0.9,4.101,2.2,6.2,3.7,6.301c1.7,0,4.5-1.9,8.6-5.601l-1.3,3.5l5.4,2
		c0.5-1.399,1.5-4.2,3.1-8.2c1.6-4.1,2.9-7.699,4.1-10.8c1.1-3.2,1.7-5,1.6-5.6c-0.2-1.601-0.8-3.8-1.9-6.8s-2-4.5-2.7-4.5
		c-0.7,0-2.6,0.3-5.7,1c-3.1,0.699-5.9,1.5-8.5,2.399L141,27.5L141,27.5z M97.4,18.7L85.3,51.8l5.5,1.9L98,33.8
		c1.5-1.6,2.9-3,4.3-4.3c1.4-1.3,2.8-2.4,4.1-3.2c1.3-0.9,2.3-1.3,3.1-1.3c0.7,0,1.1,0.6,1.3,1.6c0,0.9-2.9,9.3-8.9,25.2l5.4,1.9
		c4.2-11.5,6.7-18.5,7.6-21c1.4-1.4,2.8-2.7,4.1-3.801c1.3-1.1,2.5-2.1,3.7-2.8c1.1-0.7,2.1-1.1,2.8-1c0.7,0,1.1,0.601,1.1,1.601
		c0,0.899-2.9,9.3-8.9,25.199l5.4,1.9c5.1-14.1,7.9-21.8,8.2-23c0.3-1.3-0.2-3.7-1.6-7.3c-1.4-3.601-2.5-5.4-3.6-5.5
		c-2.6-0.2-6.4,2.399-11.4,7.7c-0.6-1.9-1.3-3.7-2.1-5.301c-0.8-1.6-1.6-2.399-2.2-2.5c-1.9-0.199-4.6,1.301-8.1,4.5L103,20.5
		L97.4,18.7z M80.1,19.2C79.2,18.4,78,18,76.7,18c-1.4,0-2.8,0.6-4.3,1.6s-3,2.3-4.6,3.8c-1.5,1.5-2.9,3.2-4.1,5.301
		c-1.2,2-2.3,4.1-3.1,6.1c-0.8,2-1.2,4.1-1.3,6.3c-0.1,2.101,0.3,4.101,1.1,5.8c1,2.101,2.2,3.9,3.5,5.301c1,1.1,2.2,1.699,3.5,1.8
		c1.3,0.1,2.6-0.101,4-0.7c1.3-0.6,2.7-1.5,4.1-2.8c1.4-1.2,2.7-2.601,3.9-4.2c1.2-1.6,2.3-3.2,3.2-5c1-1.8,1.7-3.6,2.3-5.3
		c0.6-1.8,0.9-3.5,1-5.2s-0.1-3.1-0.6-4.3C84.1,23.9,82.4,21.5,80.1,19.2 M80.9,30.9c-0.5,2.2-1.5,4.4-2.8,6.601
		c-1.3,2.2-2.9,4.2-4.6,6c-1.7,1.899-3.4,3.1-5,3.7c-1.6,0.6-2.9,0.3-3.8-0.7c-0.2-0.2-0.3-0.5-0.5-0.8c-1-2.2-0.4-5.5,1.9-9.9
		c2.1-3.8,4.5-6.9,7.2-9.2c3.3-2.7,5.7-3,7.1-1C81.2,27,81.4,28.7,80.9,30.9 M42.6,2.7L24.7,51.9l5.5,1.9l6.9-19
		c2.1-2.2,4.2-4.1,6.3-5.8s4-2.9,5.7-3.601c1.6-0.699,2.5-0.199,2.5,1.4c0,0.9-2.9,9.3-8.9,25.1l5.4,1.9c5.1-14.1,7.9-21.8,8.2-23
		c0.3-1.3-0.2-3.7-1.6-7.3c-1.4-3.601-2.5-5.4-3.6-5.5c-2.2-0.2-5.5,1.7-10.1,5.8l7-19.2L42.6,2.7z M16.4,11.9L1.9,51.8l6.2,2
		l15.2-41.9h11.9L33.5,5.7h-28L7.2,11.9H16.4z"/>
</g>
<g>
	<path fill="#F6D2FF" d="M347.1,17L335,50.2l5.5,1.899l7.6-20.899c1.9-2.301,3.4-4,4.7-5s2.601-1.5,4-1.2c1.4,0.3,2.8,1.399,4,3.5
		l5.9-6.9c-0.9-1.2-2.101-2.5-3.601-3.6c-1.5-1.2-2.699-1.8-3.5-1.8c-1.699,0-4.699,2.699-9,8l1.9-5.101L347.1,17z M320.8,39
		c3.601-2.601,7.101-5.3,10.7-8s5.4-4.101,5.5-4.3c-0.9-2.301-2.2-4.601-3.9-6.9c-1.699-2.4-3.199-3.6-4.6-3.6c-2,0-4.2,1-6.6,2.899
		c-2.4,1.9-4.5,4.2-6.301,7c-1.8,2.7-3.199,5.7-4.1,8.8c-0.9,3.2-1.1,5.9-0.4,8.2c1.101,3.8,2.801,6.5,5.101,8c1.6,1,3.5,1,5.899,0
		c2.301-1,5.5-3,9.4-5.899l-0.5-1.4c-0.3-1-0.5-1.9-0.8-2.9l-0.5-1.399c-1.601,1.3-3,2.399-4.2,3.2c-1.2,0.8-2.5,1.6-4.1,2.399
		c-1.601,0.8-2.9,1-3.9,0.7c-1-0.4-1.7-1.3-2.1-2.9L320.8,39z M321.3,27.6c1.7-2.3,3.5-3.8,5.4-4.3c1.899-0.6,3.6,0.2,5.2,2.4
		L316.8,36.4C318,32.8,319.5,29.9,321.3,27.6 M306,18.1c-1.4-0.7-2.5-1.1-3.3-1.399c-0.8-0.301-1.5-0.4-1.9-0.4
		c-1.6,0-3.3,0.5-5.1,1.4c-1.7,0.899-3.2,2.1-4.4,3.6c-1.199,1.5-2.199,3.1-3,4.8c-0.8,1.8-1.1,3.4-0.8,5c0.3,2.3,1,4.4,2.101,6.4
		l0.299,0.3c1,0.7,4.101,0.2,9.301-1.5c1.7-0.6,2.7-0.9,3-0.9s0.5,0,0.399,0.2c-2.1,3.8-4.5,6.5-7.2,7.9
		c-2.699,1.399-5.1,1.7-7.299,0.899c-2.201-0.8-4-2.399-5.4-4.699L281,42.1c1.3,3.4,2.5,5.9,3.8,7.601c1.2,1.699,3,2.5,5.1,2.5
		c2.601,0,5.201-0.9,7.701-2.7c2.499-1.8,4.499-3.9,6.1-6.4c1.5-2.5,2.399-5.1,2.6-7.8s-0.5-4.9-2.2-6.6
		c-0.399-0.4-1.5-0.301-3.399,0.199c-1.9,0.5-3.7,1-5.301,1.601c-1.6,0.5-2.399,0.6-2.299,0.1c0.399-1.8,1.399-3.6,3-5.5
		c1.6-1.899,3.3-3,4.999-3.3c1.101-0.2,3,0.2,5.9,1.2l1.9-3.7C308.3,19.2,307.4,18.8,306,18.1 M278,17l-12.101,33.1l5.5,1.9
		L283.5,19L278,17z M288.2,7.8c0-2.2-0.6-3.8-1.9-4.9c-0.6,0.2-1.6,0.9-3,2C282,6.1,281.101,7,280.8,7.7c0,2.3,0.6,3.899,1.9,5
		C285.101,11.5,286.899,9.8,288.2,7.8 M251.2,39c3.6-2.601,7.1-5.3,10.699-8c3.601-2.7,5.4-4.101,5.5-4.3
		C266.5,24.4,265.2,22.1,263.5,19.8c-1.7-2.4-3.2-3.6-4.601-3.6c-2,0-4.199,1-6.6,2.899c-2.4,1.9-4.5,4.2-6.3,7
		c-1.8,2.7-3.2,5.7-4.101,8.8c-0.899,3.2-1.1,5.9-0.399,8.2c1.101,3.8,2.8,6.5,5.101,8c1.6,1,3.5,1,5.899,0c2.3-1,5.5-3,9.399-5.899
		l-0.5-1.4c-0.299-1-0.5-1.9-0.799-2.9l-0.5-1.399c-1.601,1.3-3,2.399-4.201,3.2c-1.199,0.8-2.5,1.6-4.1,2.399s-2.9,1-3.9,0.7
		c-1-0.4-1.699-1.3-2.1-2.9L251.2,39z M251.7,27.6c1.699-2.3,3.5-3.8,5.4-4.3c1.899-0.6,3.6,0.2,5.199,2.4L247.2,36.4
		C248.399,32.8,249.899,29.9,251.7,27.6 M219.8,4l-13.5,37l-0.199,0.3l0.1,0.1l-3.2,8.7l6.2,2l3.6-10l11.2-12l2.101,19.9l5.699,2
		l-3.1-27l17.699-19L240.7,4l-23.1,24.899l8-22.1L219.8,4z M183.5,18.1c-1.4-0.7-2.5-1.1-3.3-1.399c-0.8-0.301-1.5-0.4-1.9-0.4
		c-1.6,0-3.3,0.5-5.1,1.4c-1.7,0.899-3.2,2.1-4.4,3.6c-1.2,1.5-2.2,3.1-3,4.8c-0.8,1.8-1.1,3.4-0.8,5c0.3,2.3,1,4.4,2.1,6.4l0.3,0.3
		c1,0.7,4.1,0.2,9.3-1.5c1.6-0.6,2.7-0.9,3-0.9c0.3,0,0.5,0,0.4,0.2c-2.1,3.8-4.5,6.5-7.2,7.9c-2.7,1.399-5.1,1.7-7.3,0.899
		c-2.2-0.8-4-2.399-5.4-4.699l-1.7,2.399c1.3,3.4,2.5,5.9,3.8,7.601c1.2,1.699,3,2.5,5.1,2.5c2.6,0,5.2-0.9,7.7-2.7s4.5-3.9,6.1-6.4
		c1.5-2.5,2.4-5.1,2.6-7.8c0.2-2.7-0.5-4.9-2.2-6.6c-0.4-0.4-1.5-0.301-3.4,0.199c-1.9,0.5-3.7,1-5.3,1.601
		c-1.6,0.5-2.4,0.6-2.3,0.1c0.4-1.8,1.4-3.6,3-5.5c1.6-1.899,3.3-3,5-3.3c1.1-0.2,3,0.2,5.9,1.2l1.899-3.7
		C185.8,19.2,184.9,18.8,183.5,18.1 M150.8,33.2l-2.3,6.1c-2.7,2-5,3.4-7,4.3c-2,0.8-3.3,1.101-4.1,0.9c-0.8-0.2-1.2-0.601-1.2-1.2
		C135.9,40,140.8,36.7,150.8,33.2 M140.1,25.8L140.1,25.8l0.1-0.1l0,0l0.1-0.101l0,0l0,0h0.1l0.1-0.1l0,0l0,0l0.1-0.101l0,0l0,0
		l0.1-0.1l0,0h0.1l0.1-0.1h0.1c5.8-2.101,9.5-3.101,11.1-3c1.6,0.199,2,1.399,1.2,3.6l-0.7,1.9c-1.1,0.1-2.5,0.399-4.2,0.8
		c-1.7,0.399-3.6,0.899-5.9,1.6c-2.2,0.7-4.3,1.601-6.1,2.8c-1.8,1.2-3,2.5-3.5,3.9c-0.7,1.8-0.5,4.8,0.4,8.9
		c0.9,4.1,2.2,6.199,3.7,6.3c1.7,0,4.5-1.9,8.6-5.601l-1.3,3.5l5.4,2c0.5-1.399,1.5-4.199,3.1-8.199c1.6-4.101,2.9-7.7,4.1-10.801
		c1.1-3.199,1.7-5,1.6-5.6c-0.2-1.6-0.8-3.8-1.9-6.8s-2-4.5-2.7-4.5c-0.7,0-2.6,0.3-5.7,1s-5.9,1.5-8.5,2.399L140.1,25.8L140.1,25.8
		z M96.5,17L84.4,50.1l5.5,1.9l7.2-19.9c1.5-1.6,2.9-3,4.3-4.3s2.8-2.4,4.1-3.2c1.3-0.899,2.3-1.3,3.1-1.3c0.7,0,1.1,0.6,1.3,1.6
		c0,0.9-2.9,9.301-8.9,25.2l5.4,1.9c4.2-11.5,6.7-18.5,7.6-21c1.4-1.4,2.8-2.7,4.1-3.8c1.3-1.101,2.5-2.101,3.7-2.801
		c1.1-0.699,2.1-1.1,2.8-1c0.7,0,1.1,0.601,1.1,1.601c0,0.899-2.9,9.3-8.9,25.2l5.4,1.899c5.1-14.1,7.9-21.8,8.2-23
		c0.3-1.3-0.2-3.7-1.6-7.3c-1.4-3.6-2.5-5.4-3.6-5.5c-2.6-0.2-6.4,2.4-11.4,7.7c-0.6-1.9-1.3-3.7-2.1-5.3
		c-0.8-1.601-1.6-2.4-2.2-2.5c-1.9-0.2-4.6,1.3-8.1,4.5l0.7-1.9L96.5,17z M79.2,17.5c-0.9-0.8-2.1-1.2-3.4-1.2
		c-1.4,0-2.8,0.6-4.3,1.6s-3,2.301-4.6,3.801C65.4,23.2,64,24.9,62.8,27c-1.2,2-2.3,4.1-3.1,6.1c-0.8,2-1.2,4.101-1.3,6.3
		C58.3,41.5,58.7,43.5,59.5,45.2c1,2.1,2.2,3.899,3.5,5.3c1,1.1,2.2,1.7,3.5,1.8s2.6-0.1,4-0.7c1.3-0.6,2.7-1.5,4.1-2.8
		c1.4-1.2,2.7-2.6,3.9-4.2c1.2-1.6,2.3-3.2,3.2-5c1-1.8,1.7-3.6,2.3-5.3c0.6-1.8,0.9-3.5,1-5.2s-0.1-3.1-0.6-4.3
		C83.2,22.2,81.5,19.8,79.2,17.5 M80,29.2c-0.5,2.199-1.5,4.399-2.8,6.6c-1.3,2.2-2.9,4.2-4.6,6c-1.7,1.9-3.4,3.1-5,3.7
		c-1.6,0.6-2.9,0.3-3.8-0.7c-0.2-0.2-0.3-0.5-0.5-0.8c-1-2.2-0.4-5.5,1.9-9.9c2.1-3.8,4.5-6.899,7.2-9.2c3.3-2.699,5.7-3,7.1-1
		C80.3,25.3,80.5,27,80,29.2 M41.7,1L23.8,50.2l5.5,1.899l6.9-19c2.1-2.2,4.2-4.1,6.3-5.8s4-2.9,5.7-3.6c1.6-0.7,2.5-0.2,2.5,1.399
		c0,0.9-2.9,9.3-8.9,25.101l5.4,1.899c5.1-14.1,7.9-21.8,8.2-23c0.3-1.3-0.2-3.7-1.6-7.3c-1.4-3.6-2.5-5.4-3.6-5.5
		c-2.2-0.2-5.5,1.7-10.1,5.8l7-19.2L41.7,1z M15.5,10.2L1,50.1l6.2,2L22.4,10.2h11.9L32.6,4h-28l1.7,6.2H15.5z"/>
</g>
</svg>
