<?xml version="1.0" encoding="utf-8"?>
<!-- Generator: Adobe Illustrator 15.0.0, SVG Export Plug-In . SVG Version: 6.00 Build 0)  -->
<!DOCTYPE svg PUBLIC "-//W3C//DTD SVG 1.1//EN" "http://www.w3.org/Graphics/SVG/1.1/DTD/svg11.dtd">
<svg version="1.1" id="Ebene_1" xmlns="http://www.w3.org/2000/svg" xmlns:xlink="http://www.w3.org/1999/xlink" x="0px" y="0px"
	 width="366.8px" height="53px" viewBox="0 0 366.8 53" enable-background="new 0 0 366.8 53" xml:space="preserve">
<g>
	<path fill="#000001" d="M347.1,17L335,50.2l5.5,1.9l7.6-20.9c1.9-2.3,3.4-4,4.7-5s2.6-1.5,4-1.2c1.4,0.3,2.8,1.4,4,3.5l5.9-6.9
		c-0.9-1.2-2.1-2.5-3.6-3.6c-1.5-1.2-2.7-1.8-3.5-1.8c-1.7,0-4.7,2.7-9,8l1.9-5.1L347.1,17z M320.8,39c3.6-2.6,7.1-5.3,10.7-8
		s5.4-4.1,5.5-4.3c-0.9-2.3-2.2-4.6-3.9-6.9c-1.7-2.4-3.2-3.6-4.6-3.6c-2,0-4.2,1-6.6,2.9c-2.4,1.9-4.5,4.2-6.3,7
		c-1.8,2.7-3.2,5.7-4.1,8.8c-0.9,3.2-1.1,5.9-0.4,8.2c1.1,3.8,2.8,6.5,5.1,8c1.6,1,3.5,1,5.9,0c2.3-1,5.5-3,9.4-5.9l-0.5-1.4
		c-0.3-1-0.5-1.9-0.8-2.9l-0.5-1.4c-1.6,1.3-3,2.4-4.2,3.2c-1.2,0.8-2.5,1.6-4.1,2.4c-1.6,0.8-2.9,1-3.9,0.7c-1-0.4-1.7-1.3-2.1-2.9
		L320.8,39z M321.3,27.6c1.7-2.3,3.5-3.8,5.4-4.3c1.9-0.6,3.6,0.2,5.2,2.4l-15.1,10.7C318,32.8,319.5,29.9,321.3,27.6 M306,18.1
		c-1.4-0.7-2.5-1.1-3.3-1.4c-0.8-0.3-1.5-0.4-1.9-0.4c-1.6,0-3.3,0.5-5.1,1.4c-1.7,0.9-3.2,2.1-4.4,3.6s-2.2,3.1-3,4.8
		c-0.8,1.8-1.1,3.4-0.8,5c0.3,2.3,1,4.4,2.1,6.4l0.3,0.3c1,0.7,4.1,0.2,9.3-1.5c1.7-0.6,2.7-0.9,3-0.9s0.5,0,0.4,0.2
		c-2.1,3.8-4.5,6.5-7.2,7.9c-2.7,1.4-5.1,1.7-7.3,0.9c-2.2-0.8-4-2.4-5.4-4.7l-1.7,2.4c1.3,3.4,2.5,5.9,3.8,7.6
		c1.2,1.7,3,2.5,5.1,2.5c2.6,0,5.2-0.9,7.7-2.7s4.5-3.9,6.1-6.4c1.5-2.5,2.4-5.1,2.6-7.8c0.2-2.7-0.5-4.9-2.2-6.6
		c-0.4-0.4-1.5-0.3-3.4,0.2c-1.9,0.5-3.7,1-5.3,1.6c-1.6,0.5-2.4,0.6-2.3,0.1c0.4-1.8,1.4-3.6,3-5.5c1.6-1.9,3.3-3,5-3.3
		c1.1-0.2,3,0.2,5.9,1.2l1.9-3.7C308.3,19.2,307.4,18.8,306,18.1 M278,17l-12.1,33.1l5.5,1.9l12.1-33L278,17z M288.2,7.8
		c0-2.2-0.6-3.8-1.9-4.9c-0.6,0.2-1.6,0.9-3,2c-1.3,1.2-2.2,2.1-2.5,2.8c0,2.3,0.6,3.9,1.9,5C285.1,11.5,286.9,9.8,288.2,7.8
		 M251.2,39c3.6-2.6,7.1-5.3,10.7-8c3.6-2.7,5.4-4.1,5.5-4.3c-0.9-2.3-2.2-4.6-3.9-6.9c-1.7-2.4-3.2-3.6-4.6-3.6c-2,0-4.2,1-6.6,2.9
		c-2.4,1.9-4.5,4.2-6.3,7c-1.8,2.7-3.2,5.7-4.1,8.8c-0.9,3.2-1.1,5.9-0.4,8.2c1.1,3.8,2.8,6.5,5.1,8c1.6,1,3.5,1,5.9,0
		c2.3-1,5.5-3,9.4-5.9l-0.5-1.4c-0.3-1-0.5-1.9-0.8-2.9l-0.5-1.4c-1.6,1.3-3,2.4-4.2,3.2c-1.2,0.8-2.5,1.6-4.1,2.4
		c-1.6,0.8-2.9,1-3.9,0.7c-1-0.4-1.7-1.3-2.1-2.9L251.2,39z M251.7,27.6c1.7-2.3,3.5-3.8,5.4-4.3c1.9-0.6,3.6,0.2,5.2,2.4
		l-15.1,10.7C248.4,32.8,249.9,29.9,251.7,27.6 M219.8,4l-13.5,37l-0.2,0.3l0.1,0.1l-3.2,8.7l6.2,2l3.6-10l11.2-12l2.1,19.9l5.7,2
		l-3.1-27l17.7-19l-5.7-2l-23.1,24.9l8-22.1L219.8,4z M183.5,18.1c-1.4-0.7-2.5-1.1-3.3-1.4c-0.8-0.3-1.5-0.4-1.9-0.4
		c-1.6,0-3.3,0.5-5.1,1.4c-1.7,0.9-3.2,2.1-4.4,3.6c-1.2,1.5-2.2,3.1-3,4.8c-0.8,1.8-1.1,3.4-0.8,5c0.3,2.3,1,4.4,2.1,6.4l0.3,0.3
		c1,0.7,4.1,0.2,9.3-1.5c1.6-0.6,2.7-0.9,3-0.9c0.3,0,0.5,0,0.4,0.2c-2.1,3.8-4.5,6.5-7.2,7.9c-2.7,1.4-5.1,1.7-7.3,0.9
		c-2.2-0.8-4-2.4-5.4-4.7l-1.7,2.4c1.3,3.4,2.5,5.9,3.8,7.6c1.2,1.7,3,2.5,5.1,2.5c2.6,0,5.2-0.9,7.7-2.7s4.5-3.9,6.1-6.4
		c1.5-2.5,2.4-5.1,2.6-7.8c0.2-2.7-0.5-4.9-2.2-6.6c-0.4-0.4-1.5-0.3-3.4,0.2c-1.9,0.5-3.7,1-5.3,1.6c-1.6,0.5-2.4,0.6-2.3,0.1
		c0.4-1.8,1.4-3.6,3-5.5s3.3-3,5-3.3c1.1-0.2,3,0.2,5.9,1.2l1.9-3.7C185.8,19.2,184.9,18.8,183.5,18.1 M150.8,33.2l-2.3,6.1
		c-2.7,2-5,3.4-7,4.3c-2,0.8-3.3,1.1-4.1,0.9c-0.8-0.2-1.2-0.6-1.2-1.2C135.9,40,140.8,36.7,150.8,33.2 M140.1,25.8L140.1,25.8
		l0.1-0.1l0,0l0.1-0.1l0,0l0,0h0.1l0.1-0.1l0,0l0,0l0.1-0.1l0,0l0,0l0.1-0.1l0,0h0.1l0.1-0.1h0.1c5.8-2.1,9.5-3.1,11.1-3
		c1.6,0.2,2,1.4,1.2,3.6l-0.7,1.9c-1.1,0.1-2.5,0.4-4.2,0.8c-1.7,0.4-3.6,0.9-5.9,1.6c-2.2,0.7-4.3,1.6-6.1,2.8
		c-1.8,1.2-3,2.5-3.5,3.9c-0.7,1.8-0.5,4.8,0.4,8.9c0.9,4.1,2.2,6.2,3.7,6.3c1.7,0,4.5-1.9,8.6-5.6l-1.3,3.5l5.4,2
		c0.5-1.4,1.5-4.2,3.1-8.2c1.6-4.1,2.9-7.7,4.1-10.8c1.1-3.2,1.7-5,1.6-5.6c-0.2-1.6-0.8-3.8-1.9-6.8s-2-4.5-2.7-4.5
		c-0.7,0-2.6,0.3-5.7,1s-5.9,1.5-8.5,2.4L140.1,25.8L140.1,25.8z M96.5,17L84.4,50.1l5.5,1.9l7.2-19.9c1.5-1.6,2.9-3,4.3-4.3
		c1.4-1.3,2.8-2.4,4.1-3.2c1.3-0.9,2.3-1.3,3.1-1.3c0.7,0,1.1,0.6,1.3,1.6c0,0.9-2.9,9.3-8.9,25.2l5.4,1.9c4.2-11.5,6.7-18.5,7.6-21
		c1.4-1.4,2.8-2.7,4.1-3.8c1.3-1.1,2.5-2.1,3.7-2.8c1.1-0.7,2.1-1.1,2.8-1c0.7,0,1.1,0.6,1.1,1.6c0,0.9-2.9,9.3-8.9,25.2l5.4,1.9
		c5.1-14.1,7.9-21.8,8.2-23c0.3-1.3-0.2-3.7-1.6-7.3c-1.4-3.6-2.5-5.4-3.6-5.5c-2.6-0.2-6.4,2.4-11.4,7.7c-0.6-1.9-1.3-3.7-2.1-5.3
		c-0.8-1.6-1.6-2.4-2.2-2.5c-1.9-0.2-4.6,1.3-8.1,4.5l0.7-1.9L96.5,17z M79.2,17.5c-0.9-0.8-2.1-1.2-3.4-1.2c-1.4,0-2.8,0.6-4.3,1.6
		s-3,2.3-4.6,3.8c-1.5,1.5-2.9,3.2-4.1,5.3c-1.2,2-2.3,4.1-3.1,6.1c-0.8,2-1.2,4.1-1.3,6.3c-0.1,2.1,0.3,4.1,1.1,5.8
		c1,2.1,2.2,3.9,3.5,5.3c1,1.1,2.2,1.7,3.5,1.8c1.3,0.1,2.6-0.1,4-0.7c1.3-0.6,2.7-1.5,4.1-2.8c1.4-1.2,2.7-2.6,3.9-4.2
		s2.3-3.2,3.2-5c1-1.8,1.7-3.6,2.3-5.3c0.6-1.8,0.9-3.5,1-5.2c0.1-1.7-0.1-3.1-0.6-4.3C83.2,22.2,81.5,19.8,79.2,17.5 M80,29.2
		c-0.5,2.2-1.5,4.4-2.8,6.6c-1.3,2.2-2.9,4.2-4.6,6c-1.7,1.9-3.4,3.1-5,3.7s-2.9,0.3-3.8-0.7c-0.2-0.2-0.3-0.5-0.5-0.8
		c-1-2.2-0.4-5.5,1.9-9.9c2.1-3.8,4.5-6.9,7.2-9.2c3.3-2.7,5.7-3,7.1-1C80.3,25.3,80.5,27,80,29.2 M41.7,1L23.8,50.2l5.5,1.9l6.9-19
		c2.1-2.2,4.2-4.1,6.3-5.8c2.1-1.7,4-2.9,5.7-3.6c1.6-0.7,2.5-0.2,2.5,1.4c0,0.9-2.9,9.3-8.9,25.1l5.4,1.9c5.1-14.1,7.9-21.8,8.2-23
		c0.3-1.3-0.2-3.7-1.6-7.3c-1.4-3.6-2.5-5.4-3.6-5.5c-2.2-0.2-5.5,1.7-10.1,5.8l7-19.2L41.7,1z M15.5,10.2L1,50.1l6.2,2l15.2-41.9
		h11.9L32.6,4h-28l1.7,6.2H15.5z"/>
</g>
</svg>
